<svg xmlns="http://www.w3.org/2000/svg" viewBox="0 0 24 24" width="24" height="24"><path d="M2.09,16.98 L3.06,16.59 L4.04,16.40 L4.72,16.00 L7.36,15.13 L8.34,14.93 L8.63,14.73 L10.39,14.25 L11.76,13.66 L12.05,13.66 L14.20,14.34 L14.49,14.54 L15.27,14.73 L15.47,14.93 L15.86,14.93 L17.42,15.42 L17.91,15.71 L19.57,16.20 L19.77,16.40 L20.16,16.40 L20.35,16.59 L20.94,16.59 L21.82,16.88 L21.96,16.25 L21.82,16.10 L21.62,16.20 L21.03,15.91 L20.45,15.81 L20.25,15.52 L19.47,15.42 L17.52,14.54 L16.25,14.15 L15.96,13.86 L15.66,13.95 L14.78,13.56 L13.71,13.27 L13.56,13.12 L14.98,12.68 L15.27,12.49 L15.57,12.49 L16.25,12.88 L16.54,12.68 L17.32,12.78 L17.47,12.34 L17.27,12.15 L17.08,11.56 L18.01,10.73 L18.40,10.44 L18.79,10.44 L21.33,9.66 L21.91,9.36 L22.26,8.92 L21.47,7.36 L21.23,7.12 L21.03,7.12 L19.47,8.48 L19.18,8.48 L18.59,9.17 L17.52,9.95 L17.13,10.05 L16.93,9.85 L16.15,9.85 L15.71,10.39 L15.66,11.02 L13.71,11.90 L12.15,12.39 L11.56,12.39 L10.97,12.10 L10.19,11.90 L8.14,10.93 L8.09,10.29 L7.75,9.85 L7.26,9.75 L6.97,9.85 L6.68,10.14 L6.48,10.05 L5.31,9.17 L4.72,8.48 L4.53,8.58 L2.67,7.12 L2.43,7.36 L1.74,8.83 L1.65,9.12 L1.79,9.36 L3.45,10.05 L3.84,10.05 L5.02,10.44 L5.60,10.44 L6.82,11.66 L6.63,12.15 L6.33,12.34 L6.58,12.88 L6.77,12.88 L6.97,12.68 L7.36,12.68 L7.46,12.88 L7.65,12.88 L8.24,12.49 L8.43,12.49 L8.73,12.68 L10.24,13.12 L8.14,13.95 L7.95,13.76 L7.65,14.15 L3.84,15.42 L3.45,15.81 L2.97,15.91 L2.67,16.10 L1.99,16.20 L1.94,16.54 L2.09,16.98Z M7.56,12.59 L7.31,12.34 L7.36,12.10 L7.56,12.10 L7.90,12.34 L7.56,12.59Z M16.25,12.59 L16.00,12.34 L16.44,12.10 L16.59,12.34 L16.25,12.59Z M7.65,10.83 L7.51,10.68 L7.56,10.24 L6.82,10.29 L7.07,10.05 L7.46,9.95 L7.90,10.39 L8.00,10.68 L7.95,10.83 L7.65,10.83Z M15.96,10.83 L15.91,10.49 L16.15,10.14 L16.74,10.05 L16.98,10.29 L16.54,10.34 L16.35,10.24 L16.30,10.49 L16.40,10.58 L15.96,10.83Z" fill="#111" fill-rule="evenodd"/></svg>
